<svg xmlns="http://www.w3.org/2000/svg" xmlns:xlink="http://www.w3.org/1999/xlink" width="35" height="35" viewBox="0 0 35 35">
    <defs>
        <path id="a" d="M0 0h25.939v25.81H0z"/>
    </defs>
    <g fill="none" fill-rule="evenodd" opacity=".25" transform="translate(5 5)">
        <mask id="b" fill="#fff">
            <use xlink:href="#a"/>
        </mask>
        <path fill="#000" d="M22.695 22.568c-.64.002-1.257.003-1.875-.004-.306-.011-.576.07-.882.268a8.703 8.703 0 0 1-4.72 1.385 8.826 8.826 0 0 1-3.546-.743c-2.705-1.179-4.61-3.589-5.094-6.447a8.61 8.61 0 0 1 2.151-7.318c1.825-1.985 4.437-3.01 7.166-2.807 2.29.168 4.394 1.23 5.923 2.99 1.53 1.76 2.278 3.982 2.106 6.254a8.81 8.81 0 0 1-.62 2.653c-.109.27-.122.51-.043.78.16.542.311 1.087.47 1.66l.368 1.327-1.404.002zM4.844 15.93l.008.452h-3.01l.16-.565.177-.637c.141-.51.274-.99.422-1.478a1.263 1.263 0 0 0-.036-.879c-.912-2.336-.755-4.896.429-7.021 1.171-2.103 3.246-3.58 5.69-4.053 2.995-.577 5.61.3 7.77 2.61.037.04.072.085.123.155l.081.108.598.784-.988-.07c-3.269-.237-5.942.666-8.172 2.761-2.21 2.076-3.303 4.71-3.252 7.833zm20.122 3.761a1.422 1.422 0 0 1 .02-.796c.343-1.032.549-2.12.628-3.323-.035-.24-.063-.481-.092-.723-.065-.55-.13-1.104-.257-1.623-.743-3.044-2.556-5.342-5.389-6.829-.272-.142-.487-.353-.59-.578C17.124 1.106 11.788-1.147 6.874.577 1.884 2.328-.806 7.858.876 12.905c.091.274.101.605.027.887a105.44 105.44 0 0 1-.559 2.017l-.293 1.038c-.091.327-.06.615.09.81.151.2.428.31.78.314l.784.006c.926.008 1.852.015 2.78.013.16 0 .642 0 .829.595a10.247 10.247 0 0 0 6.156 6.529c2.975 1.138 6.26.87 9.015-.739.226-.132.512-.211.783-.217.836-.016 1.672-.023 2.509-.03l1.264-.012c.336-.004.604-.115.755-.314.15-.198.183-.482.094-.8l-.276-.978.249-.07-.252.06c-.215-.76-.437-1.546-.645-2.323z" mask="url(#b)"/>
    </g>
</svg>
