<svg xmlns="http://www.w3.org/2000/svg" xmlns:xlink="http://www.w3.org/1999/xlink" width="35" height="35" viewBox="0 0 35 35">
    <defs>
        <filter id="a" width="188.9%" height="200%" x="-44.4%" y="-50%" filterUnits="objectBoundingBox">
            <feOffset dy="2" in="SourceAlpha" result="shadowOffsetOuter1"/>
            <feGaussianBlur in="shadowOffsetOuter1" result="shadowBlurOuter1" stdDeviation="2"/>
            <feColorMatrix in="shadowBlurOuter1" result="shadowMatrixOuter1" values="0 0 0 0 0 0 0 0 0 0 0 0 0 0 0 0 0 0 0.2 0"/>
            <feMerge>
                <feMergeNode in="shadowMatrixOuter1"/>
                <feMergeNode in="SourceGraphic"/>
            </feMerge>
        </filter>
        <path id="b" d="M0 .045h26.91v22.85H0z"/>
    </defs>
    <g fill="none" fill-rule="evenodd" filter="url(#a)" transform="translate(4 6)">
        <g transform="translate(0 .059)">
            <mask id="c" fill="#fff">
                <use xlink:href="#b"/>
            </mask>
            <path fill="#FFF" d="M13.441 21.05c3.383 0 6.766 0 10.15-.002.145 0 .291-.008.435-.026a1.172 1.172 0 0 0 1.039-1.191c.001-4.544.003-9.088-.007-13.632 0-.205-.074-.428-.172-.611-.241-.453-.66-.6-1.147-.6-1.666.002-3.332-.001-4.997.002-.45 0-.765-.193-.964-.604-.37-.763-.754-1.517-1.126-2.278-.067-.138-.14-.206-.308-.205-1.931.007-3.863.006-5.795 0-.153 0-.226.056-.29.19-.368.753-.754 1.497-1.114 2.254-.216.454-.552.65-1.044.645-.98-.011-1.958-.003-2.937-.003-.695 0-1.391-.009-2.086.003-.74.012-1.248.522-1.249 1.24-.001 4.527-.003 9.053.007 13.58 0 .213.08.445.18.636.258.49.715.603 1.224.603 3.4-.003 6.8-.002 10.201-.002m.026 1.846c-3.435 0-6.87.003-10.304-.001-1.6-.002-2.819-1.001-3.117-2.55a3.033 3.033 0 0 1-.044-.57C0 15.274 0 10.773.002 6.272c0-1.541.99-2.766 2.485-3.074.258-.054.529-.06.794-.06a396.35 396.35 0 0 1 4.147.002c.192.001.288-.062.371-.234.364-.755.747-1.501 1.114-2.255.195-.401.515-.601.944-.602C12.253.043 14.65.045 17.045.047c.433 0 .748.197.943.6.347.715.716 1.42 1.052 2.14.12.259.259.362.557.357 1.365-.02 2.73-.006 4.096-.01 1.052-.003 1.924.375 2.578 1.222.416.539.633 1.155.634 1.832.006 4.553.01 9.106 0 13.658a3.067 3.067 0 0 1-2.928 3.043 9.19 9.19 0 0 1-.386.006H13.467" mask="url(#c)"/>
        </g>
        <path fill="#FFF" d="M13.453 17.702c2.545-.002 4.586-2.057 4.587-4.62a4.604 4.604 0 0 0-4.578-4.637c-2.533-.022-4.596 2.063-4.592 4.64.003 2.574 2.032 4.618 4.583 4.617m0 1.86c-3.537 0-6.427-2.919-6.425-6.49 0-3.573 2.891-6.481 6.434-6.474 3.538.007 6.404 2.901 6.406 6.47.001 3.58-2.876 6.493-6.416 6.494"/>
    </g>
</svg>
