<svg xmlns="http://www.w3.org/2000/svg" xmlns:xlink="http://www.w3.org/1999/xlink" width="30" height="30" viewBox="0 0 30 30">
    <defs>
        <path id="a" d="M0 .947h19v19.098H0z"/>
    </defs>
    <g fill="none" fill-rule="evenodd" opacity=".8">
        <g transform="translate(6 5.008)">
            <mask id="b" fill="#fff">
                <use xlink:href="#a"/>
            </mask>
            <path fill="#231815" d="M16.564 15.134v.001l.921 3.308-3.506-.896a.562.562 0 0 0-.41.064 8.39 8.39 0 0 1-4.082 1.08c-4.55 0-8.252-3.678-8.252-8.199 0-4.515 3.702-8.188 8.252-8.188 4.55 0 8.253 3.673 8.253 8.187a8.08 8.08 0 0 1-1.109 4.086.73.73 0 0 0-.067.557m2.41 4.032l-1.146-4.138.05-.094a9.682 9.682 0 0 0 1.097-4.444c0-5.261-4.256-9.543-9.488-9.543C4.257.947 0 5.229 0 10.492c0 5.264 4.256 9.546 9.485 9.546h.076a9.51 9.51 0 0 0 4.278-1.032l.09-.046 4.375 1.085.084-.007a.604.604 0 0 0 .452-.219.732.732 0 0 0 .135-.653" mask="url(#b)"/>
        </g>
        <path fill="#231815" d="M18.563 14.923h-2.508v-2.519c0-.347-.298-.63-.665-.63-.366 0-.664.283-.664.63v2.52h-2.508c-.345 0-.628.3-.628.668 0 .368.283.668.628.668h2.508v2.52a.62.62 0 0 0 .195.446c.125.119.293.184.47.184.366 0 .664-.283.664-.63v-2.52h2.508c.346 0 .627-.3.627-.668 0-.369-.28-.669-.627-.669"/>
    </g>
</svg>
