<svg xmlns="http://www.w3.org/2000/svg" xmlns:xlink="http://www.w3.org/1999/xlink" width="35" height="35" viewBox="0 0 35 35">
    <defs>
        <filter id="a" width="161.9%" height="153.8%" x="-31%" y="-25%" filterUnits="objectBoundingBox">
            <feOffset in="SourceAlpha" result="shadowOffsetOuter1"/>
            <feGaussianBlur in="shadowOffsetOuter1" result="shadowBlurOuter1" stdDeviation="1.5"/>
            <feColorMatrix in="shadowBlurOuter1" result="shadowMatrixOuter1" values="0 0 0 0 0 0 0 0 0 0 0 0 0 0 0 0 0 0 0.3 0"/>
            <feMerge>
                <feMergeNode in="shadowMatrixOuter1"/>
                <feMergeNode in="SourceGraphic"/>
            </feMerge>
        </filter>
        <path id="b" d="M0 .15h20.976v12.037H0z"/>
    </defs>
    <g fill="none" fill-rule="evenodd" filter="url(#a)" transform="translate(7 5)">
        <g transform="translate(0 13.738)">
            <mask id="c" fill="#fff">
                <use xlink:href="#b"/>
            </mask>
            <path fill="#FFF" d="M1.874 10.327c-.119-3.51 2.978-8.315 8.537-8.382 5.281-.063 8.728 4.38 8.72 8.382H1.873zm19.005-1.112C19.907 3.246 14.833-.54 8.886.256 4.06.903.156 5.322.002 10.224c-.046 1.435.785 1.98 1.889 1.963 2.874-.046 5.75-.015 8.626-.015h1.26c2.523 0 5.045.006 7.567-.004 1.058-.004 1.66-.634 1.631-1.69a9.424 9.424 0 0 0-.096-1.263z" mask="url(#c)"/>
        </g>
        <path fill="#FFF" d="M10.513 1.818c2.493.012 4.469 2.02 4.463 4.534-.006 2.496-2.04 4.524-4.506 4.496a4.527 4.527 0 0 1-4.476-4.54c.01-2.48 2.044-4.502 4.52-4.49m-.033 10.846c3.457.013 6.3-2.838 6.303-6.322.003-3.495-2.802-6.327-6.28-6.342C7.05-.014 4.2 2.838 4.193 6.32c-.01 3.473 2.822 6.33 6.287 6.344"/>
    </g>
</svg>
