<svg xmlns="http://www.w3.org/2000/svg" xmlns:xlink="http://www.w3.org/1999/xlink" width="30" height="30" viewBox="0 0 30 30">
    <defs>
        <path id="a" d="M.044.047h4.659v4.641H.044z"/>
    </defs>
    <g fill="none" fill-rule="evenodd" opacity=".3">
        <path fill="#000" d="M17.2 10.808l3.01 3c-.027.02-.07.042-.102.074-3.003 2.992-6.006 5.984-9.007 8.977a.28.28 0 0 1-.218.094c-.913-.004-1.827-.002-2.74-.002h-.137c-.002-.046-.006-.086-.006-.126 0-.915-.001-1.829.003-2.743 0-.062.032-.14.076-.183 3.014-3.01 6.032-6.017 9.049-9.024.026-.026.054-.05.072-.067"/>
        <g transform="translate(18.253 8.004)">
            <mask id="b" fill="#fff">
                <use xlink:href="#a"/>
            </mask>
            <path fill="#000" d="M.044 1.722L1.728.047l2.975 2.965L3.02 4.688.044 1.722" mask="url(#b)"/>
        </g>
    </g>
</svg>
