<svg xmlns="http://www.w3.org/2000/svg" xmlns:xlink="http://www.w3.org/1999/xlink" width="30" height="30" viewBox="0 0 30 30">
    <defs>
        <path id="a" d="M0 .011h20.923V21.83H0z"/>
    </defs>
    <g fill="none" fill-rule="evenodd" opacity=".7">
        <g transform="translate(4 4.16)">
            <mask id="b" fill="#fff">
                <use xlink:href="#a"/>
            </mask>
            <path fill="#231815" d="M12.318 18.71c-.029.35-.07.707-.11 1.051-.02.186-.042.372-.063.575-.012.107-.01.107-.073.107a435.61 435.61 0 0 0-1.704-.003H8.8l-.133-1.148a3.557 3.557 0 0 0-.016-.118 1.222 1.222 0 0 1-.022-.23c.023-.54-.221-.866-.792-1.06-.738-.25-1.437-.676-2.139-1.299-.268-.238-.56-.28-.89-.13-.388.178-.777.352-1.172.53l-.4.179-1.666-2.962.336-.256c.32-.245.652-.499.98-.74.353-.258.474-.55.395-.944a7.097 7.097 0 0 1 .006-2.74c.065-.343-.042-.614-.329-.831a243.43 243.43 0 0 0-1.013-.763l-.375-.281 1.675-2.971.395.177c.388.173.755.337 1.125.512.365.173.675.13.975-.137a6.682 6.682 0 0 1 2.254-1.339c.394-.136.593-.4.626-.833.031-.403.08-.815.126-1.213l.05-.423h3.33l.136 1.173c.024.207.047.414.068.621.03.304.187.515.454.61a7.744 7.744 0 0 1 2.523 1.5c.211.187.478.21.793.066.39-.178.78-.354 1.179-.534l.4-.18 1.676 2.971-.332.252c-.318.242-.618.47-.932.692-.396.278-.526.598-.433 1.07.167.85.16 1.74-.019 2.642-.07.351.034.626.317.84.426.32.85.642 1.274.964.04.03.08.063.123.099l-1.665 2.958-.407-.182c-.386-.172-.765-.34-1.141-.516-.345-.16-.65-.116-.933.135a6.862 6.862 0 0 1-2.298 1.36c-.372.13-.56.368-.592.749m8.227-5.348l-.435-.328a61.88 61.88 0 0 1-1.01-.77.225.225 0 0 1-.064-.148c.12-.846.118-1.61-.005-2.335-.022-.129.007-.173.11-.249.391-.286.783-.583 1.161-.871l.235-.178c.43-.326.493-.638.225-1.114l-2.146-3.808c-.258-.458-.569-.563-1.038-.354-.581.259-1.104.493-1.624.738-.095.044-.147.037-.264-.037-.732-.461-1.3-.8-1.845-1.102-.165-.091-.214-.156-.227-.304-.04-.45-.091-.907-.14-1.348l-.05-.437c-.048-.448-.3-.696-.71-.699C11.334.01 9.864.008 8.226.017c-.393.002-.687.28-.732.693L7.47.916c-.06.541-.121 1.1-.172 1.652-.011.118-.038.158-.132.197A7.9 7.9 0 0 0 5.214 3.92c-.084.067-.135.073-.232.027-.555-.26-1.121-.514-1.602-.728a2.238 2.238 0 0 0-.254-.091l-.08-.026-.02-.007-.02.002c-.31.02-.522.151-.668.411-.428.765-.859 1.528-1.29 2.292L.147 7.403c-.24.429-.171.765.217 1.06.472.359.96.73 1.453 1.092.083.061.102.104.086.196a6.98 6.98 0 0 0 0 2.336c.016.095-.002.135-.086.197-.41.301-.815.609-1.22.916l-.213.162c-.422.32-.49.637-.232 1.094.722 1.284 1.446 2.568 2.17 3.85.235.418.575.531 1.009.338l.553-.25c.365-.165.742-.335 1.116-.496.046-.02.136-.011.164.01.67.512 1.33.897 2.021 1.177.081.033.101.065.113.184.058.61.123 1.235.2 1.907.045.394.322.65.706.65a776.38 776.38 0 0 0 4.517 0c.397 0 .661-.252.707-.672l.04-.368c.054-.488.107-.976.154-1.465.014-.137.057-.2.195-.275a45.188 45.188 0 0 0 1.893-1.113c.107-.065.149-.078.24-.035.461.218.935.429 1.392.633l.254.113c.434.194.774.08 1.009-.337a2982.75 2982.75 0 0 0 2.17-3.85c.255-.454.186-.781-.23-1.095" mask="url(#b)"/>
        </g>
        <path fill="#231815" d="M14.517 18.889c-2.134 0-3.873-1.777-3.877-3.963a3.999 3.999 0 0 1 1.127-2.822 3.812 3.812 0 0 1 2.752-1.158c1.046 0 2.025.413 2.757 1.164a3.992 3.992 0 0 1 1.13 2.815c-.005 2.184-1.748 3.963-3.886 3.964h-.003zm3.713-7.76a5.15 5.15 0 0 0-3.704-1.577h-.007c-2.883 0-5.233 2.389-5.24 5.328-.007 2.96 2.34 5.38 5.232 5.395h.026a5.12 5.12 0 0 0 3.67-1.557 5.395 5.395 0 0 0 1.554-3.797 5.384 5.384 0 0 0-1.531-3.791z"/>
    </g>
</svg>
