<svg xmlns="http://www.w3.org/2000/svg" xmlns:xlink="http://www.w3.org/1999/xlink" width="30" height="30" viewBox="0 0 30 30">
    <defs>
        <path id="a" d="M0 0h18.951v19.887H.001z"/>
    </defs>
    <g fill="none" fill-rule="evenodd" opacity=".7" transform="translate(5 5)">
        <mask id="b" fill="#fff">
            <use xlink:href="#a"/>
        </mask>
        <path fill="#231815" d="M7.107 13.023l-.008-.256a5.553 5.553 0 0 1-3.963-1.646 5.617 5.617 0 0 1-1.642-3.994 5.6 5.6 0 0 1 1.645-3.982 5.565 5.565 0 0 1 3.964-1.643h.02c3.08.011 5.583 2.542 5.58 5.641-.002 3.097-2.512 5.62-5.596 5.624v.256zm11.621 5.557l-6.507-6.541c1.269-1.33 1.969-3.036 1.977-4.83A7.158 7.158 0 0 0 12.14 2.12 7.049 7.049 0 0 0 7.11.001h-.032C3.194 0 .018 3.181 0 7.092a7.108 7.108 0 0 0 2.065 5.06A7.062 7.062 0 0 0 7.09 14.27h.028a6.92 6.92 0 0 0 3.935-1.238l6.597 6.631a.76.76 0 0 0 1.078-.001.762.762 0 0 0 .222-.541.761.761 0 0 0-.223-.541z" mask="url(#b)"/>
    </g>
</svg>
