<svg xmlns="http://www.w3.org/2000/svg" xmlns:xlink="http://www.w3.org/1999/xlink" width="30" height="30" viewBox="0 0 30 30">
    <defs>
        <path id="a" d="M0 .243h13.782v12.211H0z"/>
    </defs>
    <g fill="none" fill-rule="evenodd">
        <path fill="#40A390" d="M11.114 14.035c.326 2.126 2.233 3.61 4.27 3.33 1.856-.256 3.277-1.941 3.286-3.9.004-.754.001-1.508.001-2.263 0-.541.002-1.083 0-1.625-.003-.356.017-.715-.023-1.067-.214-1.901-1.679-3.359-3.497-3.5-2.187-.168-4.077 1.667-4.078 3.96 0 1.493-.001 2.985.002 4.478 0 .196.01.394.039.587"/>
        <g transform="translate(8 11.442)">
            <mask id="b" fill="#fff">
                <use xlink:href="#a"/>
            </mask>
            <path fill="#40A390" d="M7.59 9.198c.327-.065.644-.11.952-.192 3.144-.84 5.594-3.876 5.198-8.19-.034-.366-.33-.588-.707-.57-.368.016-.623.263-.644.628-.007.133-.003.266-.003.399-.001.626.012 1.252-.11 1.872-.593 3.017-3.406 5.144-6.523 4.474-2.601-.56-4.445-2.985-4.39-5.705.007-.33.006-.659 0-.988C1.352.519 1.08.249.685.243.308.24 0 .493.001.86c.003.7-.02 1.406.062 2.098.335 2.818 2.385 5.251 5.016 5.996.37.104.75.167 1.14.252v1.632H4.455c-.426 0-.772.363-.772.809 0 .446.346.808.772.808h4.872c.426 0 .772-.362.772-.808 0-.446-.346-.808-.772-.808h-1.74l.002-1.473v-.167z" mask="url(#b)"/>
        </g>
    </g>
</svg>
