<svg xmlns="http://www.w3.org/2000/svg" xmlns:xlink="http://www.w3.org/1999/xlink" width="30" height="30" viewBox="0 0 30 30">
    <defs>
        <path id="a" d="M0 0h17.918v11.994H0z"/>
    </defs>
    <g fill="none" fill-rule="evenodd" transform="translate(6 9)">
        <mask id="b" fill="#fff">
            <use xlink:href="#a"/>
        </mask>
        <path fill="#40A390" d="M4.186 5.519h1.838V3.68c0-.346.282-.627.627-.627a.63.63 0 0 1 .647.627v1.838h1.838c.346 0 .628.281.628.627a.63.63 0 0 1-.628.647H7.298V8.63a.628.628 0 0 1-.627.627.63.63 0 0 1-.647-.627V6.793H4.186a.628.628 0 0 1-.627-.627.63.63 0 0 1 .627-.647m12.652-4.445c-.71.294-1.419.59-2.128.886l-1.882.783V.793c0-.513-.276-.792-.793-.792H.789C.269 0 0 .274 0 .79v10.457c0 .332.167.601.452.692.134.043.284.052.427.052 4.742.003 6.327.003 11.068.002.066 0 .132.001.197-.006.438-.049.683-.323.684-.764V9.256c.088.032.15.052.208.076l3.782 1.576c.628.262 1.1-.046 1.1-.721V1.8c0-.673-.46-.983-1.08-.727" mask="url(#b)"/>
    </g>
</svg>
